<svg id="Layer_1" data-name="Layer 1" xmlns="http://www.w3.org/2000/svg" viewBox="0 0 50 50"><defs><style>.cls-1{fill:#fff;}.cls-2{fill:#bdbdbd;}</style></defs><title>checkmark-1</title><path class="cls-1" d="M27,50H23C11.25,50,5.62,43.89,3,38.77A27.91,27.91,0,0,1,0,27V23C0,11.25,6.11,5.62,11.23,3A27.91,27.91,0,0,1,23,0h4C38.75,0,44.38,6.11,47,11.23A28,28,0,0,1,50,23v4c0,11.75-6.11,17.38-11.23,20A27.9,27.9,0,0,1,27,50Z"/><path class="cls-2" d="M23,37a2,2,0,0,1-1.56-.75l-8-10a2,2,0,0,1,3.12-2.5l6.2,7.75L33.29,14A2,2,0,1,1,36.71,16l-12,20a2,2,0,0,1-1.58,1H23Z"/></svg>