<svg id="Layer_1" data-name="Layer 1" xmlns="http://www.w3.org/2000/svg" xmlns:xlink="http://www.w3.org/1999/xlink" viewBox="0 0 120 120"><defs><style>.cls-1,.cls-5,.cls-7{fill:none;}.cls-2{clip-path:url(#clip-path);}.cls-3{fill:#e5e5e5;}.cls-4{fill:#cacaca;}.cls-5{stroke:#bdbdbd;}.cls-5,.cls-7{stroke-linecap:round;stroke-linejoin:round;stroke-width:3px;}.cls-6{fill:#f7f7f7;}.cls-7{stroke:#959595;}.cls-8{fill:#fff;}.cls-9{fill:#1d1d1b;}</style><clipPath id="clip-path"><rect class="cls-1" width="120" height="120"/></clipPath></defs><title>1-to-1 - faces - </title><g class="cls-2"><path class="cls-3" d="M58,0S0,0,0,58v4s0,58,58,58h4s58,0,58-58V58S120,0,62,0H58Z"/><path class="cls-4" d="M60,81c4.14,0,7.5-2,7.5-4.5S64.14,72,60,72s-7.5,2-7.5,4.5S55.86,81,60,81"/><path class="cls-5" d="M24,42.85C31.35,39.5,42,45,51,37.09"/><path class="cls-5" d="M96,42.85C88.65,39.5,78,45,69,37.09"/><path class="cls-6" d="M60,102c-10,0-24.5,1.5-24.5,1.5,7-5.2,14-8,24.5-8s17.5,2.8,24.5,8c0,0-14.5-1.5-24.5-1.5"/><path class="cls-7" d="M60,102c-10,0-24.5,1.5-24.5,1.5,7-5.2,14-8,24.5-8s17.5,2.8,24.5,8C84.5,103.5,70,102,60,102Z"/><path class="cls-8" d="M40,69c5.52,0,10-5.37,10-12S45.52,45,40,45,30,50.37,30,57s4.48,12,10,12"/><path class="cls-9" d="M40,66c2.21,0,4-2.24,4-5s-1.79-5-4-5-4,2.24-4,5,1.79,5,4,5"/><path class="cls-8" d="M80,69c5.52,0,10-5.37,10-12S85.52,45,80,45,70,50.37,70,57s4.48,12,10,12"/><path class="cls-9" d="M80,66c2.21,0,4-2.24,4-5s-1.79-5-4-5-4,2.24-4,5,1.79,5,4,5"/><path class="cls-4" d="M89.85,55C89.05,49.33,85,45,80,45s-9.06,4.33-9.85,10c0,0,2.85,3,9.85,3s9.85-3,9.85-3"/><path class="cls-4" d="M49.85,55C49.05,49.33,45,45,40,45s-9.05,4.33-9.85,10c0,0,2.85,3,9.85,3s9.85-3,9.85-3"/></g></svg>