<svg id="Layer_1" data-name="Layer 1" xmlns="http://www.w3.org/2000/svg" xmlns:xlink="http://www.w3.org/1999/xlink" viewBox="0 0 120 120"><defs><style>.cls-1,.cls-6,.cls-7{fill:none;}.cls-2{clip-path:url(#clip-path);}.cls-3{fill:#e5e5e5;}.cls-4{fill:#cacaca;}.cls-5{fill:#f7f7f7;}.cls-6{stroke:#959595;}.cls-6,.cls-7{stroke-linecap:round;stroke-linejoin:round;stroke-width:3px;}.cls-7{stroke:#bdbdbd;}.cls-8{fill:#fff;}.cls-9{fill:#1d1d1b;}</style><clipPath id="clip-path"><rect class="cls-1" width="120" height="120"/></clipPath></defs><title>1-to-1 - faces - </title><g class="cls-2"><path class="cls-3" d="M58,0S0,0,0,58v4s0,58,58,58h4s58,0,58-58V58S120,0,62,0H58Z"/><path class="cls-4" d="M60,81c4.14,0,7.5-2,7.5-4.5S64.14,72,60,72s-7.5,2-7.5,4.5S55.86,81,60,81"/><path class="cls-5" d="M60,102c-10,0-24.5,1.5-24.5,1.5,7.5-6.5,14-10,24.5-10s17,3,24.5,10c0,0-14.5-1.5-24.5-1.5"/><path class="cls-6" d="M60,102c-10,0-24.5,1.5-24.5,1.5,7.5-6.5,14-10,24.5-10s17,3,24.5,10C84.5,103.5,70,102,60,102Z"/><path class="cls-7" d="M24,38.85c7.35-3.35,18,8.65,27-1.76"/><path class="cls-7" d="M96,38.85c-7.35-3.35-18,8.65-27-1.76"/><path class="cls-8" d="M40,69c5.52,0,10-5.37,10-12S45.52,45,40,45,30,50.37,30,57s4.48,12,10,12"/><path class="cls-9" d="M40,66c1.93,0,3.5-2,3.5-4.5S41.93,57,40,57s-3.5,2-3.5,4.5S38.07,66,40,66"/><path class="cls-8" d="M80,69c5.52,0,10-5.37,10-12S85.52,45,80,45,70,50.37,70,57s4.48,12,10,12"/><path class="cls-9" d="M80,66c1.93,0,3.5-2,3.5-4.5S81.93,57,80,57s-3.5,2-3.5,4.5S78.07,66,80,66"/><path class="cls-4" d="M49.67,60A14.27,14.27,0,0,0,50,57c0-6.63-4.48-12-10-12S30,50.37,30,57a14.21,14.21,0,0,0,.33,3A52.39,52.39,0,0,0,40,61a52.4,52.4,0,0,0,9.67-1"/><path class="cls-4" d="M89.67,60A14.27,14.27,0,0,0,90,57c0-6.63-4.48-12-10-12S70,50.37,70,57a14.21,14.21,0,0,0,.33,3A52.39,52.39,0,0,0,80,61a52.4,52.4,0,0,0,9.67-1"/></g></svg>