<svg id="Layer_1" data-name="Layer 1" xmlns="http://www.w3.org/2000/svg" xmlns:xlink="http://www.w3.org/1999/xlink" viewBox="0 0 120 120"><defs><style>.cls-1,.cls-6,.cls-7{fill:none;}.cls-2{clip-path:url(#clip-path);}.cls-3{fill:#e6e6e6;}.cls-4{fill:#cbcbcb;}.cls-5{fill:#f8f8f8;}.cls-6{stroke:#969696;}.cls-6,.cls-7{stroke-linecap:round;stroke-linejoin:round;stroke-width:3px;}.cls-7{stroke:#bebebe;}</style><clipPath id="clip-path"><rect class="cls-1" width="120" height="120"/></clipPath></defs><title>1-to-1 - faces - </title><g class="cls-2"><path class="cls-3" d="M58,0S0,0,0,58v4s0,58,58,58h4s58,0,58-58V58S120,0,62,0H58Z"/><path class="cls-4" d="M60,79.5c4.14,0,7.5-2,7.5-4.5s-3.36-4.5-7.5-4.5-7.5,2-7.5,4.5,3.36,4.5,7.5,4.5"/><path class="cls-5" d="M60,99.5c-10,0-22,13-26,3-3.62-9,12.49-14.95,26.48-15.5C76,86.39,91,93.49,86,102s-12-2.5-26-2.5"/><path class="cls-6" d="M60,99.5c-10,0-22,13-26,3-3.62-9,12.49-14.95,26.48-15.5C76,86.39,91,93.49,86,102S74,99.5,60,99.5Z"/><path class="cls-5" d="M45,70.5l-1.66,4s-1.45,3,1.66,3,1.66-3,1.66-3Z"/><path class="cls-5" d="M35.38,79.5l-2.64,3.43s-2.18,2.52.83,3.33,2.38-2.47,2.38-2.47Z"/><path class="cls-5" d="M31.71,73l-3.84,2s-3,1.36-.66,3.37,3.2-1.23,3.2-1.23Z"/><path class="cls-5" d="M88,74.17l0.18,4.33s-0.05,3.33,2.77,2,0.24-3.42.24-3.42Z"/></g><line class="cls-7" x1="56.75" y1="34" x2="57.75" y2="41.65"/><line class="cls-7" x1="63.25" y1="34" x2="62.25" y2="41.65"/><g class="cls-2"><path class="cls-7" d="M39,29c7,4,6.7,12.67,10,20.5"/><path class="cls-7" d="M30.33,69C34.91,68.5,46,64.5,46,64.5"/><path class="cls-7" d="M35.27,72.75C42.13,72,49,61,49,61"/><path class="cls-4" d="M42,67.5c5.52,0,10-5.37,10-12s-4.48-12-10-12-10,5.37-10,12,4.48,12,10,12"/><path class="cls-7" d="M81,29c-7,4-6.7,12.67-10,20.5"/><path class="cls-7" d="M89.67,69C85.09,68.5,74,64.5,74,64.5"/><path class="cls-7" d="M84.73,72.75C77.87,72,71,61,71,61"/><path class="cls-4" d="M78,67.5c-5.52,0-10-5.37-10-12s4.48-12,10-12,10,5.37,10,12-4.48,12-10,12"/><path class="cls-5" d="M78,73.5l-1.66,4s-1.45,3,1.66,3,1.66-3,1.66-3Z"/></g></svg>