<svg id="Layer_1" data-name="Layer 1" xmlns="http://www.w3.org/2000/svg" xmlns:xlink="http://www.w3.org/1999/xlink" viewBox="0 0 120 120"><defs><style>.cls-1,.cls-8,.cls-9{fill:none;}.cls-2{clip-path:url(#clip-path);}.cls-3{fill:#e5e5e5;}.cls-4{fill:#fff;}.cls-5{fill:#1d1d1b;}.cls-6{fill:#cacaca;}.cls-7{fill:#f7f7f7;}.cls-8{stroke:#959595;}.cls-8,.cls-9{stroke-linecap:round;stroke-linejoin:round;stroke-width:3px;}.cls-9{stroke:#bdbdbd;}</style><clipPath id="clip-path"><rect class="cls-1" width="120" height="120"/></clipPath></defs><title>1-to-1 - faces - </title><g class="cls-2"><path class="cls-3" d="M58,0S0,0,0,58v4s0,58,58,58h4s58,0,58-58V58S120,0,62,0H58Z"/><path class="cls-4" d="M40,69c5.52,0,10-5.37,10-12S45.52,45,40,45,30,50.37,30,57s4.48,12,10,12"/><path class="cls-5" d="M40,66a5,5,0,0,0,0-10,5,5,0,0,0,0,10"/><path class="cls-4" d="M80,69c5.52,0,10-5.37,10-12S85.52,45,80,45,70,50.37,70,57s4.48,12,10,12"/><path class="cls-5" d="M80,66a5,5,0,1,0-4.5-5A4.77,4.77,0,0,0,80,66"/><path class="cls-6" d="M60,81c4.14,0,7.5-2,7.5-4.5S64.14,72,60,72s-7.5,2-7.5,4.5S55.86,81,60,81"/><path class="cls-7" d="M30,86c2.5,11.5,13.43,20,30,20s26-7.5,30-20a84.57,84.57,0,0,1-60,0"/><path class="cls-8" d="M30,86c2.5,11.5,13.43,20,30,20s26-7.5,30-20A84.57,84.57,0,0,1,30,86Z"/><path class="cls-9" d="M24,45c5.5-11.65,17.5-15.5,27-4"/><path class="cls-9" d="M96,45c-5.5-11.65-17.5-15.5-27-4"/></g></svg>