<svg id="Layer_1" data-name="Layer 1" xmlns="http://www.w3.org/2000/svg" xmlns:xlink="http://www.w3.org/1999/xlink" viewBox="0 0 120 120"><defs><style>.cls-1,.cls-6,.cls-7{fill:none;}.cls-2{clip-path:url(#clip-path);}.cls-3{fill:#e5e5e5;}.cls-4{fill:#cacaca;}.cls-5{fill:#f7f7f7;}.cls-6{stroke:#959595;}.cls-6,.cls-7{stroke-linecap:round;stroke-linejoin:round;stroke-width:3px;}.cls-7{stroke:#bdbdbd;}.cls-8{fill:#fff;}</style><clipPath id="clip-path"><rect class="cls-1" width="120" height="120"/></clipPath></defs><title>1-to-1 - faces - </title><g class="cls-2"><path class="cls-3" d="M58,0S0,0,0,58v4s0,58,58,58h4s58,0,58-58V58S120,0,62,0H58Z"/><path class="cls-4" d="M60,81c4.14,0,7.5-2,7.5-4.5S64.14,72,60,72s-7.5,2-7.5,4.5S55.86,81,60,81"/><path class="cls-5" d="M60,101c-11,0-24.5,2.5-24.5,2.5,6.5-9,10.5-14,24.5-14s19,5,24.5,14A144.32,144.32,0,0,0,60,101"/><path class="cls-6" d="M60,101c-11,0-24.5,2.5-24.5,2.5,6.5-9,10.5-14,24.5-14s19,5,24.5,14A144.32,144.32,0,0,0,60,101Z"/><path class="cls-7" d="M24,34.85C36,31,36.5,50,50,37.09"/><path class="cls-8" d="M40,69c5.52,0,10-5.37,10-12S45.52,45,40,45,30,50.37,30,57s4.48,12,10,12"/><path class="cls-8" d="M80,69c5.52,0,10-5.37,10-12S85.52,45,80,45,70,50.37,70,57s4.48,12,10,12"/><path class="cls-4" d="M46.6,66A13.09,13.09,0,0,0,50,57c0-6.63-4.48-12-10-12S30,50.37,30,57a13.09,13.09,0,0,0,3.4,9H46.6Z"/><path class="cls-4" d="M86.6,66A13.09,13.09,0,0,0,90,57c0-6.63-4.48-12-10-12S70,50.37,70,57a13.09,13.09,0,0,0,3.4,9H86.6Z"/><path class="cls-7" d="M96,34.85C84,31,83.5,50,70,37.09"/><path class="cls-5" d="M43,72l-1.66,4S39.88,79,43,79s1.66-3,1.66-3Z"/><path class="cls-5" d="M88,73.65L87,77.88s-0.91,3.21,2.16,2.67S90.3,77.3,90.3,77.3Z"/><path class="cls-5" d="M80,72l-1.66,4S76.88,79,80,79s1.66-3,1.66-3Z"/></g><line class="cls-7" x1="56.75" y1="35.5" x2="57.75" y2="43.15"/><line class="cls-7" x1="63.25" y1="35.5" x2="62.25" y2="43.15"/></svg>