<svg id="Layer_1" data-name="Layer 1" xmlns="http://www.w3.org/2000/svg" viewBox="0 0 70 41"><defs><style>.cls-1{fill:#fff;}</style></defs><title>logo-1</title><path d="M20,40c12,0,20-8,20-20S32,0,20,0,0,8,0,20,8,40,20,40"/><path d="M50,40c12,0,20-8,20-20S62,0,50,0,30,8,30,20s8,20,20,20"/><path d="M10.64,31S7.64,37.39,3,41a33.6,33.6,0,0,0,12-2.78Z"/><path d="M60.36,31s3,6.39,7.64,10a33.6,33.6,0,0,1-12-2.78Z"/><path class="cls-1" d="M39.53,21.31a1.8,1.8,0,1,1-3.6,0,1.8,1.8,0,1,1,3.6,0m0.94,0A2.74,2.74,0,1,0,37.72,24a2.73,2.73,0,0,0,2.75-2.74m-6.54,1.88a0.41,0.41,0,0,0-.42-0.43,0.58,0.58,0,0,0-.37.18,1,1,0,0,1-.64.26,0.85,0.85,0,0,1-.69-0.33,1.08,1.08,0,0,1-.17-0.63V19.48h1.43a0.42,0.42,0,1,0,0-.85H31.64v-1.5a0.47,0.47,0,1,0-.94,0v1.5H29.65a0.42,0.42,0,1,0,0,.85h1v2.71a1.8,1.8,0,0,0,3.07,1.34A0.5,0.5,0,0,0,33.93,23.19Z"/><path class="cls-1" d="M21.88,12.67a1.74,1.74,0,0,0-1.75-1.75h-1a1.7,1.7,0,0,0-1,.3L13.4,14.58a1.54,1.54,0,0,0-.7,1.35,1.7,1.7,0,0,0,.3,1,1.54,1.54,0,0,0,1.35.7,1.7,1.7,0,0,0,1-.3l1.9-1.35a9.55,9.55,0,0,0,1.25-1l0.05,0a4.9,4.9,0,0,0-.12,1.2V27.25a1.75,1.75,0,1,0,3.5,0V12.67Z"/><path class="cls-1" d="M53.38,12.67a1.74,1.74,0,0,0-1.75-1.75h-1a1.7,1.7,0,0,0-1,.3L44.9,14.58a1.54,1.54,0,0,0-.7,1.35,1.7,1.7,0,0,0,.3,1,1.54,1.54,0,0,0,1.35.7,1.7,1.7,0,0,0,1-.3l1.9-1.35A9.55,9.55,0,0,0,50,15L50,15a4.9,4.9,0,0,0-.12,1.2V27.25a1.75,1.75,0,1,0,3.5,0V12.67Z"/></svg>